<mxfile host="65bd71144e">
    <diagram id="-dzr-VzIc1iXK7SEfwf3" name="Page-1">
        <mxGraphModel dx="1748" dy="2326" grid="1" gridSize="10" guides="1" tooltips="1" connect="1" arrows="1" fold="1" page="1" pageScale="1" pageWidth="827" pageHeight="1169" background="none" math="0" shadow="0">
            <root>
                <mxCell id="0"/>
                <mxCell id="1" parent="0"/>
                <mxCell id="15" value="" style="shape=table;startSize=0;container=1;collapsible=0;childLayout=tableLayout;fontSize=11;rounded=0;fontFamily=Lucida Console;horizontal=1;labelBackgroundColor=none;labelBorderColor=none;fillColor=none;strokeColor=#EEE;fontColor=#EEE;spacingLeft=0;" parent="1" vertex="1">
                    <mxGeometry x="-680" y="-1080" width="400" height="400" as="geometry"/>
                </mxCell>
                <mxCell id="16" value="" style="shape=tableRow;horizontal=0;startSize=0;swimlaneHead=0;swimlaneBody=0;top=0;left=0;bottom=0;right=0;collapsible=0;dropTarget=0;fillColor=none;points=[[0,0.5],[1,0.5]];portConstraint=eastwest;fontSize=11;rounded=0;" parent="15" vertex="1">
                    <mxGeometry width="400" height="50" as="geometry"/>
                </mxCell>
                <mxCell id="17" value="&lt;font color=&quot;#eeeeee&quot; face=&quot;Courier New&quot;&gt;&lt;span style=&quot;background-color: rgb(17, 17, 17);&quot;&gt;Col: 0&lt;br&gt;Row: 7&lt;/span&gt;&lt;br&gt;&lt;/font&gt;" style="shape=partialRectangle;html=1;whiteSpace=wrap;connectable=0;overflow=hidden;fillColor=#f5f5f5;top=0;left=0;bottom=0;right=0;pointerEvents=1;fontSize=11;rounded=0;strokeColor=#666666;gradientColor=#b3b3b3;" parent="16" vertex="1">
                    <mxGeometry width="50" height="50" as="geometry">
                        <mxRectangle width="50" height="50" as="alternateBounds"/>
                    </mxGeometry>
                </mxCell>
                <mxCell id="18" value="" style="shape=partialRectangle;html=1;whiteSpace=wrap;connectable=0;overflow=hidden;fillColor=none;top=0;left=0;bottom=0;right=0;pointerEvents=1;fontSize=11;rounded=0;" parent="16" vertex="1">
                    <mxGeometry x="50" width="51" height="50" as="geometry">
                        <mxRectangle width="51" height="50" as="alternateBounds"/>
                    </mxGeometry>
                </mxCell>
                <mxCell id="19" value="" style="shape=partialRectangle;html=1;whiteSpace=wrap;connectable=0;overflow=hidden;fillColor=#f5f5f5;top=0;left=0;bottom=0;right=0;pointerEvents=1;fontSize=11;rounded=0;strokeColor=#666666;gradientColor=#b3b3b3;" parent="16" vertex="1">
                    <mxGeometry x="101" width="49" height="50" as="geometry">
                        <mxRectangle width="49" height="50" as="alternateBounds"/>
                    </mxGeometry>
                </mxCell>
                <mxCell id="20" value="" style="shape=partialRectangle;html=1;whiteSpace=wrap;connectable=0;overflow=hidden;fillColor=none;top=0;left=0;bottom=0;right=0;pointerEvents=1;fontSize=11;rounded=0;" parent="16" vertex="1">
                    <mxGeometry x="150" width="51" height="50" as="geometry">
                        <mxRectangle width="51" height="50" as="alternateBounds"/>
                    </mxGeometry>
                </mxCell>
                <mxCell id="21" value="" style="shape=partialRectangle;html=1;whiteSpace=wrap;connectable=0;overflow=hidden;fillColor=#f5f5f5;top=0;left=0;bottom=0;right=0;pointerEvents=1;fontSize=11;rounded=0;strokeColor=#666666;gradientColor=#b3b3b3;" parent="16" vertex="1">
                    <mxGeometry x="201" width="49" height="50" as="geometry">
                        <mxRectangle width="49" height="50" as="alternateBounds"/>
                    </mxGeometry>
                </mxCell>
                <mxCell id="22" value="" style="shape=partialRectangle;html=1;whiteSpace=wrap;connectable=0;overflow=hidden;fillColor=none;top=0;left=0;bottom=0;right=0;pointerEvents=1;fontSize=11;rounded=0;" parent="16" vertex="1">
                    <mxGeometry x="250" width="51" height="50" as="geometry">
                        <mxRectangle width="51" height="50" as="alternateBounds"/>
                    </mxGeometry>
                </mxCell>
                <mxCell id="23" value="" style="shape=partialRectangle;html=1;whiteSpace=wrap;connectable=0;overflow=hidden;fillColor=#f5f5f5;top=0;left=0;bottom=0;right=0;pointerEvents=1;fontSize=11;rounded=0;strokeColor=#666666;gradientColor=#b3b3b3;" parent="16" vertex="1">
                    <mxGeometry x="301" width="49" height="50" as="geometry">
                        <mxRectangle width="49" height="50" as="alternateBounds"/>
                    </mxGeometry>
                </mxCell>
                <mxCell id="24" value="&lt;font color=&quot;#eeeeee&quot;&gt;&lt;span style=&quot;font-family: &amp;quot;Courier New&amp;quot;;&quot;&gt;Col: 7&lt;/span&gt;&lt;br style=&quot;font-family: &amp;quot;Courier New&amp;quot;;&quot;&gt;&lt;/font&gt;&lt;span style=&quot;font-family: &amp;quot;Courier New&amp;quot;;&quot;&gt;&lt;font color=&quot;#eeeeee&quot;&gt;Row: 7&lt;/font&gt;&lt;br&gt;&lt;/span&gt;" style="shape=partialRectangle;html=1;whiteSpace=wrap;connectable=0;overflow=hidden;fillColor=none;top=0;left=0;bottom=0;right=0;pointerEvents=1;fontSize=11;rounded=0;" parent="16" vertex="1">
                    <mxGeometry x="350" width="50" height="50" as="geometry">
                        <mxRectangle width="50" height="50" as="alternateBounds"/>
                    </mxGeometry>
                </mxCell>
                <mxCell id="25" value="" style="shape=tableRow;horizontal=0;startSize=0;swimlaneHead=0;swimlaneBody=0;top=0;left=0;bottom=0;right=0;collapsible=0;dropTarget=0;fillColor=none;points=[[0,0.5],[1,0.5]];portConstraint=eastwest;fontSize=11;rounded=0;" parent="15" vertex="1">
                    <mxGeometry y="50" width="400" height="49" as="geometry"/>
                </mxCell>
                <mxCell id="26" value="" style="shape=partialRectangle;html=1;whiteSpace=wrap;connectable=0;overflow=hidden;fillColor=none;top=0;left=0;bottom=0;right=0;pointerEvents=1;fontSize=11;rounded=0;" parent="25" vertex="1">
                    <mxGeometry width="50" height="49" as="geometry">
                        <mxRectangle width="50" height="49" as="alternateBounds"/>
                    </mxGeometry>
                </mxCell>
                <mxCell id="27" value="" style="shape=partialRectangle;html=1;whiteSpace=wrap;connectable=0;overflow=hidden;fillColor=#f5f5f5;top=0;left=0;bottom=0;right=0;pointerEvents=1;fontSize=11;rounded=0;strokeColor=#666666;gradientColor=#b3b3b3;" parent="25" vertex="1">
                    <mxGeometry x="50" width="51" height="49" as="geometry">
                        <mxRectangle width="51" height="49" as="alternateBounds"/>
                    </mxGeometry>
                </mxCell>
                <mxCell id="28" value="" style="shape=partialRectangle;html=1;whiteSpace=wrap;connectable=0;overflow=hidden;fillColor=none;top=0;left=0;bottom=0;right=0;pointerEvents=1;fontSize=11;rounded=0;" parent="25" vertex="1">
                    <mxGeometry x="101" width="49" height="49" as="geometry">
                        <mxRectangle width="49" height="49" as="alternateBounds"/>
                    </mxGeometry>
                </mxCell>
                <mxCell id="29" value="" style="shape=partialRectangle;html=1;whiteSpace=wrap;connectable=0;overflow=hidden;fillColor=#f5f5f5;top=0;left=0;bottom=0;right=0;pointerEvents=1;fontSize=11;rounded=0;strokeColor=#666666;gradientColor=#b3b3b3;" parent="25" vertex="1">
                    <mxGeometry x="150" width="51" height="49" as="geometry">
                        <mxRectangle width="51" height="49" as="alternateBounds"/>
                    </mxGeometry>
                </mxCell>
                <mxCell id="30" value="" style="shape=partialRectangle;html=1;whiteSpace=wrap;connectable=0;overflow=hidden;fillColor=none;top=0;left=0;bottom=0;right=0;pointerEvents=1;fontSize=11;rounded=0;" parent="25" vertex="1">
                    <mxGeometry x="201" width="49" height="49" as="geometry">
                        <mxRectangle width="49" height="49" as="alternateBounds"/>
                    </mxGeometry>
                </mxCell>
                <mxCell id="31" value="" style="shape=partialRectangle;html=1;whiteSpace=wrap;connectable=0;overflow=hidden;fillColor=#f5f5f5;top=0;left=0;bottom=0;right=0;pointerEvents=1;fontSize=11;rounded=0;strokeColor=#666666;gradientColor=#b3b3b3;" parent="25" vertex="1">
                    <mxGeometry x="250" width="51" height="49" as="geometry">
                        <mxRectangle width="51" height="49" as="alternateBounds"/>
                    </mxGeometry>
                </mxCell>
                <mxCell id="32" value="" style="shape=partialRectangle;html=1;whiteSpace=wrap;connectable=0;overflow=hidden;fillColor=none;top=0;left=0;bottom=0;right=0;pointerEvents=1;fontSize=11;rounded=0;" parent="25" vertex="1">
                    <mxGeometry x="301" width="49" height="49" as="geometry">
                        <mxRectangle width="49" height="49" as="alternateBounds"/>
                    </mxGeometry>
                </mxCell>
                <mxCell id="33" value="" style="shape=partialRectangle;html=1;whiteSpace=wrap;connectable=0;overflow=hidden;fillColor=#f5f5f5;top=0;left=0;bottom=0;right=0;pointerEvents=1;fontSize=11;rounded=0;strokeColor=#666666;gradientColor=#b3b3b3;" parent="25" vertex="1">
                    <mxGeometry x="350" width="50" height="49" as="geometry">
                        <mxRectangle width="50" height="49" as="alternateBounds"/>
                    </mxGeometry>
                </mxCell>
                <mxCell id="34" value="" style="shape=tableRow;horizontal=0;startSize=0;swimlaneHead=0;swimlaneBody=0;top=0;left=0;bottom=0;right=0;collapsible=0;dropTarget=0;fillColor=none;points=[[0,0.5],[1,0.5]];portConstraint=eastwest;fontSize=11;rounded=0;" parent="15" vertex="1">
                    <mxGeometry y="99" width="400" height="51" as="geometry"/>
                </mxCell>
                <mxCell id="35" value="" style="shape=partialRectangle;html=1;whiteSpace=wrap;connectable=0;overflow=hidden;fillColor=#f5f5f5;top=0;left=0;bottom=0;right=0;pointerEvents=1;fontSize=11;rounded=0;strokeColor=#666666;gradientColor=#b3b3b3;" parent="34" vertex="1">
                    <mxGeometry width="50" height="51" as="geometry">
                        <mxRectangle width="50" height="51" as="alternateBounds"/>
                    </mxGeometry>
                </mxCell>
                <mxCell id="36" value="" style="shape=partialRectangle;html=1;whiteSpace=wrap;connectable=0;overflow=hidden;fillColor=none;top=0;left=0;bottom=0;right=0;pointerEvents=1;fontSize=11;rounded=0;" parent="34" vertex="1">
                    <mxGeometry x="50" width="51" height="51" as="geometry">
                        <mxRectangle width="51" height="51" as="alternateBounds"/>
                    </mxGeometry>
                </mxCell>
                <mxCell id="37" value="" style="shape=partialRectangle;html=1;whiteSpace=wrap;connectable=0;overflow=hidden;fillColor=#f5f5f5;top=0;left=0;bottom=0;right=0;pointerEvents=1;fontSize=11;rounded=0;strokeColor=#666666;gradientColor=#b3b3b3;" parent="34" vertex="1">
                    <mxGeometry x="101" width="49" height="51" as="geometry">
                        <mxRectangle width="49" height="51" as="alternateBounds"/>
                    </mxGeometry>
                </mxCell>
                <mxCell id="38" value="" style="shape=partialRectangle;html=1;whiteSpace=wrap;connectable=0;overflow=hidden;fillColor=none;top=0;left=0;bottom=0;right=0;pointerEvents=1;fontSize=11;rounded=0;" parent="34" vertex="1">
                    <mxGeometry x="150" width="51" height="51" as="geometry">
                        <mxRectangle width="51" height="51" as="alternateBounds"/>
                    </mxGeometry>
                </mxCell>
                <mxCell id="39" value="" style="shape=partialRectangle;html=1;whiteSpace=wrap;connectable=0;overflow=hidden;fillColor=#f5f5f5;top=0;left=0;bottom=0;right=0;pointerEvents=1;fontSize=11;rounded=0;strokeColor=#666666;gradientColor=#b3b3b3;" parent="34" vertex="1">
                    <mxGeometry x="201" width="49" height="51" as="geometry">
                        <mxRectangle width="49" height="51" as="alternateBounds"/>
                    </mxGeometry>
                </mxCell>
                <mxCell id="40" value="" style="shape=partialRectangle;html=1;whiteSpace=wrap;connectable=0;overflow=hidden;fillColor=none;top=0;left=0;bottom=0;right=0;pointerEvents=1;fontSize=11;rounded=0;" parent="34" vertex="1">
                    <mxGeometry x="250" width="51" height="51" as="geometry">
                        <mxRectangle width="51" height="51" as="alternateBounds"/>
                    </mxGeometry>
                </mxCell>
                <mxCell id="41" value="" style="shape=partialRectangle;html=1;whiteSpace=wrap;connectable=0;overflow=hidden;fillColor=#f5f5f5;top=0;left=0;bottom=0;right=0;pointerEvents=1;fontSize=11;rounded=0;strokeColor=#666666;gradientColor=#b3b3b3;" parent="34" vertex="1">
                    <mxGeometry x="301" width="49" height="51" as="geometry">
                        <mxRectangle width="49" height="51" as="alternateBounds"/>
                    </mxGeometry>
                </mxCell>
                <mxCell id="42" value="" style="shape=partialRectangle;html=1;whiteSpace=wrap;connectable=0;overflow=hidden;fillColor=none;top=0;left=0;bottom=0;right=0;pointerEvents=1;fontSize=11;rounded=0;" parent="34" vertex="1">
                    <mxGeometry x="350" width="50" height="51" as="geometry">
                        <mxRectangle width="50" height="51" as="alternateBounds"/>
                    </mxGeometry>
                </mxCell>
                <mxCell id="43" value="" style="shape=tableRow;horizontal=0;startSize=0;swimlaneHead=0;swimlaneBody=0;top=0;left=0;bottom=0;right=0;collapsible=0;dropTarget=0;fillColor=none;points=[[0,0.5],[1,0.5]];portConstraint=eastwest;fontSize=11;rounded=0;" parent="15" vertex="1">
                    <mxGeometry y="150" width="400" height="51" as="geometry"/>
                </mxCell>
                <mxCell id="44" value="" style="shape=partialRectangle;html=1;whiteSpace=wrap;connectable=0;overflow=hidden;fillColor=none;top=0;left=0;bottom=0;right=0;pointerEvents=1;fontSize=11;rounded=0;" parent="43" vertex="1">
                    <mxGeometry width="50" height="51" as="geometry">
                        <mxRectangle width="50" height="51" as="alternateBounds"/>
                    </mxGeometry>
                </mxCell>
                <mxCell id="45" value="" style="shape=partialRectangle;html=1;whiteSpace=wrap;connectable=0;overflow=hidden;fillColor=#f5f5f5;top=0;left=0;bottom=0;right=0;pointerEvents=1;fontSize=11;rounded=0;strokeColor=#666666;gradientColor=#b3b3b3;" parent="43" vertex="1">
                    <mxGeometry x="50" width="51" height="51" as="geometry">
                        <mxRectangle width="51" height="51" as="alternateBounds"/>
                    </mxGeometry>
                </mxCell>
                <mxCell id="46" value="" style="shape=partialRectangle;html=1;whiteSpace=wrap;connectable=0;overflow=hidden;fillColor=none;top=0;left=0;bottom=0;right=0;pointerEvents=1;fontSize=11;rounded=0;" parent="43" vertex="1">
                    <mxGeometry x="101" width="49" height="51" as="geometry">
                        <mxRectangle width="49" height="51" as="alternateBounds"/>
                    </mxGeometry>
                </mxCell>
                <mxCell id="47" value="" style="shape=partialRectangle;html=1;whiteSpace=wrap;connectable=0;overflow=hidden;fillColor=#f5f5f5;top=0;left=0;bottom=0;right=0;pointerEvents=1;fontSize=11;rounded=0;strokeColor=#666666;gradientColor=#b3b3b3;" parent="43" vertex="1">
                    <mxGeometry x="150" width="51" height="51" as="geometry">
                        <mxRectangle width="51" height="51" as="alternateBounds"/>
                    </mxGeometry>
                </mxCell>
                <mxCell id="48" value="" style="shape=partialRectangle;html=1;whiteSpace=wrap;connectable=0;overflow=hidden;fillColor=none;top=0;left=0;bottom=0;right=0;pointerEvents=1;fontSize=11;rounded=0;" parent="43" vertex="1">
                    <mxGeometry x="201" width="49" height="51" as="geometry">
                        <mxRectangle width="49" height="51" as="alternateBounds"/>
                    </mxGeometry>
                </mxCell>
                <mxCell id="49" value="" style="shape=partialRectangle;html=1;whiteSpace=wrap;connectable=0;overflow=hidden;fillColor=#f5f5f5;top=0;left=0;bottom=0;right=0;pointerEvents=1;fontSize=11;rounded=0;strokeColor=#666666;gradientColor=#b3b3b3;" parent="43" vertex="1">
                    <mxGeometry x="250" width="51" height="51" as="geometry">
                        <mxRectangle width="51" height="51" as="alternateBounds"/>
                    </mxGeometry>
                </mxCell>
                <mxCell id="50" value="" style="shape=partialRectangle;html=1;whiteSpace=wrap;connectable=0;overflow=hidden;fillColor=none;top=0;left=0;bottom=0;right=0;pointerEvents=1;fontSize=11;rounded=0;" parent="43" vertex="1">
                    <mxGeometry x="301" width="49" height="51" as="geometry">
                        <mxRectangle width="49" height="51" as="alternateBounds"/>
                    </mxGeometry>
                </mxCell>
                <mxCell id="51" value="" style="shape=partialRectangle;html=1;whiteSpace=wrap;connectable=0;overflow=hidden;fillColor=#f5f5f5;top=0;left=0;bottom=0;right=0;pointerEvents=1;fontSize=11;rounded=0;strokeColor=#666666;gradientColor=#b3b3b3;" parent="43" vertex="1">
                    <mxGeometry x="350" width="50" height="51" as="geometry">
                        <mxRectangle width="50" height="51" as="alternateBounds"/>
                    </mxGeometry>
                </mxCell>
                <mxCell id="52" value="" style="shape=tableRow;horizontal=0;startSize=0;swimlaneHead=0;swimlaneBody=0;top=0;left=0;bottom=0;right=0;collapsible=0;dropTarget=0;fillColor=none;points=[[0,0.5],[1,0.5]];portConstraint=eastwest;fontSize=11;rounded=0;" parent="15" vertex="1">
                    <mxGeometry y="201" width="400" height="49" as="geometry"/>
                </mxCell>
                <mxCell id="53" value="" style="shape=partialRectangle;html=1;whiteSpace=wrap;connectable=0;overflow=hidden;fillColor=#f5f5f5;top=0;left=0;bottom=0;right=0;pointerEvents=1;fontSize=11;rounded=0;strokeColor=#666666;gradientColor=#b3b3b3;" parent="52" vertex="1">
                    <mxGeometry width="50" height="49" as="geometry">
                        <mxRectangle width="50" height="49" as="alternateBounds"/>
                    </mxGeometry>
                </mxCell>
                <mxCell id="54" value="" style="shape=partialRectangle;html=1;whiteSpace=wrap;connectable=0;overflow=hidden;fillColor=none;top=0;left=0;bottom=0;right=0;pointerEvents=1;fontSize=11;rounded=0;" parent="52" vertex="1">
                    <mxGeometry x="50" width="51" height="49" as="geometry">
                        <mxRectangle width="51" height="49" as="alternateBounds"/>
                    </mxGeometry>
                </mxCell>
                <mxCell id="55" value="" style="shape=partialRectangle;html=1;whiteSpace=wrap;connectable=0;overflow=hidden;fillColor=#f5f5f5;top=0;left=0;bottom=0;right=0;pointerEvents=1;fontSize=11;rounded=0;strokeColor=#666666;gradientColor=#b3b3b3;" parent="52" vertex="1">
                    <mxGeometry x="101" width="49" height="49" as="geometry">
                        <mxRectangle width="49" height="49" as="alternateBounds"/>
                    </mxGeometry>
                </mxCell>
                <mxCell id="56" value="" style="shape=partialRectangle;html=1;whiteSpace=wrap;connectable=0;overflow=hidden;fillColor=none;top=0;left=0;bottom=0;right=0;pointerEvents=1;fontSize=11;rounded=0;" parent="52" vertex="1">
                    <mxGeometry x="150" width="51" height="49" as="geometry">
                        <mxRectangle width="51" height="49" as="alternateBounds"/>
                    </mxGeometry>
                </mxCell>
                <mxCell id="57" value="" style="shape=partialRectangle;html=1;whiteSpace=wrap;connectable=0;overflow=hidden;fillColor=#f5f5f5;top=0;left=0;bottom=0;right=0;pointerEvents=1;fontSize=11;rounded=0;strokeColor=#666666;gradientColor=#b3b3b3;" parent="52" vertex="1">
                    <mxGeometry x="201" width="49" height="49" as="geometry">
                        <mxRectangle width="49" height="49" as="alternateBounds"/>
                    </mxGeometry>
                </mxCell>
                <mxCell id="58" value="" style="shape=partialRectangle;html=1;whiteSpace=wrap;connectable=0;overflow=hidden;fillColor=none;top=0;left=0;bottom=0;right=0;pointerEvents=1;fontSize=11;rounded=0;" parent="52" vertex="1">
                    <mxGeometry x="250" width="51" height="49" as="geometry">
                        <mxRectangle width="51" height="49" as="alternateBounds"/>
                    </mxGeometry>
                </mxCell>
                <mxCell id="59" value="" style="shape=partialRectangle;html=1;whiteSpace=wrap;connectable=0;overflow=hidden;fillColor=#f5f5f5;top=0;left=0;bottom=0;right=0;pointerEvents=1;fontSize=11;rounded=0;strokeColor=#666666;gradientColor=#b3b3b3;" parent="52" vertex="1">
                    <mxGeometry x="301" width="49" height="49" as="geometry">
                        <mxRectangle width="49" height="49" as="alternateBounds"/>
                    </mxGeometry>
                </mxCell>
                <mxCell id="60" value="" style="shape=partialRectangle;html=1;whiteSpace=wrap;connectable=0;overflow=hidden;fillColor=none;top=0;left=0;bottom=0;right=0;pointerEvents=1;fontSize=11;rounded=0;" parent="52" vertex="1">
                    <mxGeometry x="350" width="50" height="49" as="geometry">
                        <mxRectangle width="50" height="49" as="alternateBounds"/>
                    </mxGeometry>
                </mxCell>
                <mxCell id="61" value="" style="shape=tableRow;horizontal=0;startSize=0;swimlaneHead=0;swimlaneBody=0;top=0;left=0;bottom=0;right=0;collapsible=0;dropTarget=0;fillColor=none;points=[[0,0.5],[1,0.5]];portConstraint=eastwest;fontSize=11;rounded=0;" parent="15" vertex="1">
                    <mxGeometry y="250" width="400" height="51" as="geometry"/>
                </mxCell>
                <mxCell id="62" value="" style="shape=partialRectangle;html=1;whiteSpace=wrap;connectable=0;overflow=hidden;fillColor=none;top=0;left=0;bottom=0;right=0;pointerEvents=1;fontSize=11;rounded=0;" parent="61" vertex="1">
                    <mxGeometry width="50" height="51" as="geometry">
                        <mxRectangle width="50" height="51" as="alternateBounds"/>
                    </mxGeometry>
                </mxCell>
                <mxCell id="63" value="" style="shape=partialRectangle;html=1;whiteSpace=wrap;connectable=0;overflow=hidden;fillColor=#f5f5f5;top=0;left=0;bottom=0;right=0;pointerEvents=1;fontSize=11;rounded=0;strokeColor=#666666;gradientColor=#b3b3b3;" parent="61" vertex="1">
                    <mxGeometry x="50" width="51" height="51" as="geometry">
                        <mxRectangle width="51" height="51" as="alternateBounds"/>
                    </mxGeometry>
                </mxCell>
                <mxCell id="64" value="" style="shape=partialRectangle;html=1;whiteSpace=wrap;connectable=0;overflow=hidden;fillColor=none;top=0;left=0;bottom=0;right=0;pointerEvents=1;fontSize=11;rounded=0;" parent="61" vertex="1">
                    <mxGeometry x="101" width="49" height="51" as="geometry">
                        <mxRectangle width="49" height="51" as="alternateBounds"/>
                    </mxGeometry>
                </mxCell>
                <mxCell id="65" value="" style="shape=partialRectangle;html=1;whiteSpace=wrap;connectable=0;overflow=hidden;fillColor=#f5f5f5;top=0;left=0;bottom=0;right=0;pointerEvents=1;fontSize=11;rounded=0;strokeColor=#666666;gradientColor=#b3b3b3;" parent="61" vertex="1">
                    <mxGeometry x="150" width="51" height="51" as="geometry">
                        <mxRectangle width="51" height="51" as="alternateBounds"/>
                    </mxGeometry>
                </mxCell>
                <mxCell id="66" value="" style="shape=partialRectangle;html=1;whiteSpace=wrap;connectable=0;overflow=hidden;fillColor=none;top=0;left=0;bottom=0;right=0;pointerEvents=1;fontSize=11;rounded=0;" parent="61" vertex="1">
                    <mxGeometry x="201" width="49" height="51" as="geometry">
                        <mxRectangle width="49" height="51" as="alternateBounds"/>
                    </mxGeometry>
                </mxCell>
                <mxCell id="67" value="" style="shape=partialRectangle;html=1;whiteSpace=wrap;connectable=0;overflow=hidden;fillColor=#f5f5f5;top=0;left=0;bottom=0;right=0;pointerEvents=1;fontSize=11;rounded=0;strokeColor=#666666;gradientColor=#b3b3b3;" parent="61" vertex="1">
                    <mxGeometry x="250" width="51" height="51" as="geometry">
                        <mxRectangle width="51" height="51" as="alternateBounds"/>
                    </mxGeometry>
                </mxCell>
                <mxCell id="68" value="" style="shape=partialRectangle;html=1;whiteSpace=wrap;connectable=0;overflow=hidden;fillColor=none;top=0;left=0;bottom=0;right=0;pointerEvents=1;fontSize=11;rounded=0;" parent="61" vertex="1">
                    <mxGeometry x="301" width="49" height="51" as="geometry">
                        <mxRectangle width="49" height="51" as="alternateBounds"/>
                    </mxGeometry>
                </mxCell>
                <mxCell id="69" value="" style="shape=partialRectangle;html=1;whiteSpace=wrap;connectable=0;overflow=hidden;fillColor=#f5f5f5;top=0;left=0;bottom=0;right=0;pointerEvents=1;fontSize=11;rounded=0;strokeColor=#666666;gradientColor=#b3b3b3;" parent="61" vertex="1">
                    <mxGeometry x="350" width="50" height="51" as="geometry">
                        <mxRectangle width="50" height="51" as="alternateBounds"/>
                    </mxGeometry>
                </mxCell>
                <mxCell id="70" value="" style="shape=tableRow;horizontal=0;startSize=0;swimlaneHead=0;swimlaneBody=0;top=0;left=0;bottom=0;right=0;collapsible=0;dropTarget=0;fillColor=none;points=[[0,0.5],[1,0.5]];portConstraint=eastwest;fontSize=11;rounded=0;" parent="15" vertex="1">
                    <mxGeometry y="301" width="400" height="49" as="geometry"/>
                </mxCell>
                <mxCell id="71" value="&lt;font style=&quot;background-color: rgb(17, 17, 17);&quot; color=&quot;#eeeeee&quot;&gt;&lt;span style=&quot;font-family: &amp;quot;Courier New&amp;quot;;&quot;&gt;Col: 0&lt;/span&gt;&lt;br style=&quot;font-family: &amp;quot;Courier New&amp;quot;;&quot;&gt;&lt;span style=&quot;font-family: &amp;quot;Courier New&amp;quot;;&quot;&gt;Row: 1&lt;/span&gt;&lt;/font&gt;" style="shape=partialRectangle;html=1;whiteSpace=wrap;connectable=0;overflow=hidden;fillColor=#f5f5f5;top=0;left=0;bottom=0;right=0;pointerEvents=1;fontSize=11;rounded=0;strokeColor=#666666;gradientColor=#b3b3b3;" parent="70" vertex="1">
                    <mxGeometry width="50" height="49" as="geometry">
                        <mxRectangle width="50" height="49" as="alternateBounds"/>
                    </mxGeometry>
                </mxCell>
                <mxCell id="72" value="&lt;font color=&quot;#eeeeee&quot;&gt;&lt;span style=&quot;font-family: &amp;quot;Courier New&amp;quot;;&quot;&gt;Col: 1&lt;/span&gt;&lt;br style=&quot;font-family: &amp;quot;Courier New&amp;quot;;&quot;&gt;&lt;span style=&quot;font-family: &amp;quot;Courier New&amp;quot;;&quot;&gt;Row: 1&lt;/span&gt;&lt;/font&gt;" style="shape=partialRectangle;html=1;whiteSpace=wrap;connectable=0;overflow=hidden;fillColor=none;top=0;left=0;bottom=0;right=0;pointerEvents=1;fontSize=11;rounded=0;" parent="70" vertex="1">
                    <mxGeometry x="50" width="51" height="49" as="geometry">
                        <mxRectangle width="51" height="49" as="alternateBounds"/>
                    </mxGeometry>
                </mxCell>
                <mxCell id="73" value="" style="shape=partialRectangle;html=1;whiteSpace=wrap;connectable=0;overflow=hidden;fillColor=#f5f5f5;top=0;left=0;bottom=0;right=0;pointerEvents=1;fontSize=11;rounded=0;strokeColor=#666666;gradientColor=#b3b3b3;" parent="70" vertex="1">
                    <mxGeometry x="101" width="49" height="49" as="geometry">
                        <mxRectangle width="49" height="49" as="alternateBounds"/>
                    </mxGeometry>
                </mxCell>
                <mxCell id="74" value="" style="shape=partialRectangle;html=1;whiteSpace=wrap;connectable=0;overflow=hidden;fillColor=none;top=0;left=0;bottom=0;right=0;pointerEvents=1;fontSize=11;rounded=0;" parent="70" vertex="1">
                    <mxGeometry x="150" width="51" height="49" as="geometry">
                        <mxRectangle width="51" height="49" as="alternateBounds"/>
                    </mxGeometry>
                </mxCell>
                <mxCell id="75" value="" style="shape=partialRectangle;html=1;whiteSpace=wrap;connectable=0;overflow=hidden;fillColor=#f5f5f5;top=0;left=0;bottom=0;right=0;pointerEvents=1;fontSize=11;rounded=0;strokeColor=#666666;gradientColor=#b3b3b3;" parent="70" vertex="1">
                    <mxGeometry x="201" width="49" height="49" as="geometry">
                        <mxRectangle width="49" height="49" as="alternateBounds"/>
                    </mxGeometry>
                </mxCell>
                <mxCell id="76" value="" style="shape=partialRectangle;html=1;whiteSpace=wrap;connectable=0;overflow=hidden;fillColor=none;top=0;left=0;bottom=0;right=0;pointerEvents=1;fontSize=11;rounded=0;" parent="70" vertex="1">
                    <mxGeometry x="250" width="51" height="49" as="geometry">
                        <mxRectangle width="51" height="49" as="alternateBounds"/>
                    </mxGeometry>
                </mxCell>
                <mxCell id="77" value="" style="shape=partialRectangle;html=1;whiteSpace=wrap;connectable=0;overflow=hidden;fillColor=#f5f5f5;top=0;left=0;bottom=0;right=0;pointerEvents=1;fontSize=11;rounded=0;strokeColor=#666666;gradientColor=#b3b3b3;" parent="70" vertex="1">
                    <mxGeometry x="301" width="49" height="49" as="geometry">
                        <mxRectangle width="49" height="49" as="alternateBounds"/>
                    </mxGeometry>
                </mxCell>
                <mxCell id="78" value="" style="shape=partialRectangle;html=1;whiteSpace=wrap;connectable=0;overflow=hidden;fillColor=none;top=0;left=0;bottom=0;right=0;pointerEvents=1;fontSize=11;rounded=0;" parent="70" vertex="1">
                    <mxGeometry x="350" width="50" height="49" as="geometry">
                        <mxRectangle width="50" height="49" as="alternateBounds"/>
                    </mxGeometry>
                </mxCell>
                <mxCell id="79" value="" style="shape=tableRow;horizontal=0;startSize=0;swimlaneHead=0;swimlaneBody=0;top=0;left=0;bottom=0;right=0;collapsible=0;dropTarget=0;fillColor=none;points=[[0,0.5],[1,0.5]];portConstraint=eastwest;fontSize=11;rounded=0;" parent="15" vertex="1">
                    <mxGeometry y="350" width="400" height="50" as="geometry"/>
                </mxCell>
                <mxCell id="80" value="&lt;font color=&quot;#eeeeee&quot; face=&quot;Courier New&quot;&gt;Col: 0&lt;br&gt;Row: 0&lt;/font&gt;" style="shape=partialRectangle;html=1;whiteSpace=wrap;connectable=0;overflow=hidden;fillColor=none;top=0;left=0;bottom=0;right=0;pointerEvents=1;fontSize=11;rounded=0;" parent="79" vertex="1">
                    <mxGeometry width="50" height="50" as="geometry">
                        <mxRectangle width="50" height="50" as="alternateBounds"/>
                    </mxGeometry>
                </mxCell>
                <mxCell id="81" value="&lt;font style=&quot;background-color: rgb(17, 17, 17);&quot; color=&quot;#eeeeee&quot;&gt;&lt;span style=&quot;font-family: &amp;quot;Courier New&amp;quot;; font-size: 11px; font-style: normal; font-variant-ligatures: normal; font-variant-caps: normal; font-weight: 400; letter-spacing: normal; orphans: 2; text-align: center; text-indent: 0px; text-transform: none; widows: 2; word-spacing: 0px; -webkit-text-stroke-width: 0px; text-decoration-thickness: initial; text-decoration-style: initial; text-decoration-color: initial; float: none; display: inline !important;&quot;&gt;Col: 1&lt;/span&gt;&lt;br style=&quot;border-color: rgb(0, 0, 0); font-family: &amp;quot;Courier New&amp;quot;; font-size: 11px; font-style: normal; font-variant-ligatures: normal; font-variant-caps: normal; font-weight: 400; letter-spacing: normal; orphans: 2; text-align: center; text-indent: 0px; text-transform: none; widows: 2; word-spacing: 0px; -webkit-text-stroke-width: 0px; text-decoration-thickness: initial; text-decoration-style: initial; text-decoration-color: initial;&quot;&gt;&lt;span style=&quot;font-family: &amp;quot;Courier New&amp;quot;; font-size: 11px; font-style: normal; font-variant-ligatures: normal; font-variant-caps: normal; font-weight: 400; letter-spacing: normal; orphans: 2; text-align: center; text-indent: 0px; text-transform: none; widows: 2; word-spacing: 0px; -webkit-text-stroke-width: 0px; text-decoration-thickness: initial; text-decoration-style: initial; text-decoration-color: initial; float: none; display: inline !important;&quot;&gt;Row: 0&lt;/span&gt;&lt;/font&gt;" style="shape=partialRectangle;html=1;whiteSpace=wrap;connectable=0;overflow=hidden;fillColor=#f5f5f5;top=0;left=0;bottom=0;right=0;pointerEvents=1;fontSize=11;rounded=0;strokeColor=#666666;gradientColor=#b3b3b3;" parent="79" vertex="1">
                    <mxGeometry x="50" width="51" height="50" as="geometry">
                        <mxRectangle width="51" height="50" as="alternateBounds"/>
                    </mxGeometry>
                </mxCell>
                <mxCell id="82" value="" style="shape=partialRectangle;html=1;whiteSpace=wrap;connectable=0;overflow=hidden;fillColor=none;top=0;left=0;bottom=0;right=0;pointerEvents=1;fontSize=11;rounded=0;" parent="79" vertex="1">
                    <mxGeometry x="101" width="49" height="50" as="geometry">
                        <mxRectangle width="49" height="50" as="alternateBounds"/>
                    </mxGeometry>
                </mxCell>
                <mxCell id="83" value="" style="shape=partialRectangle;html=1;whiteSpace=wrap;connectable=0;overflow=hidden;fillColor=#f5f5f5;top=0;left=0;bottom=0;right=0;pointerEvents=1;fontSize=11;rounded=0;strokeColor=#666666;gradientColor=#b3b3b3;" parent="79" vertex="1">
                    <mxGeometry x="150" width="51" height="50" as="geometry">
                        <mxRectangle width="51" height="50" as="alternateBounds"/>
                    </mxGeometry>
                </mxCell>
                <mxCell id="84" value="" style="shape=partialRectangle;html=1;whiteSpace=wrap;connectable=0;overflow=hidden;fillColor=none;top=0;left=0;bottom=0;right=0;pointerEvents=1;fontSize=11;rounded=0;" parent="79" vertex="1">
                    <mxGeometry x="201" width="49" height="50" as="geometry">
                        <mxRectangle width="49" height="50" as="alternateBounds"/>
                    </mxGeometry>
                </mxCell>
                <mxCell id="85" value="" style="shape=partialRectangle;html=1;whiteSpace=wrap;connectable=0;overflow=hidden;fillColor=#f5f5f5;top=0;left=0;bottom=0;right=0;pointerEvents=1;fontSize=11;rounded=0;strokeColor=#666666;gradientColor=#b3b3b3;" parent="79" vertex="1">
                    <mxGeometry x="250" width="51" height="50" as="geometry">
                        <mxRectangle width="51" height="50" as="alternateBounds"/>
                    </mxGeometry>
                </mxCell>
                <mxCell id="86" value="" style="shape=partialRectangle;html=1;whiteSpace=wrap;connectable=0;overflow=hidden;fillColor=none;top=0;left=0;bottom=0;right=0;pointerEvents=1;fontSize=11;rounded=0;" parent="79" vertex="1">
                    <mxGeometry x="301" width="49" height="50" as="geometry">
                        <mxRectangle width="49" height="50" as="alternateBounds"/>
                    </mxGeometry>
                </mxCell>
                <mxCell id="87" value="&lt;font style=&quot;background-color: rgb(17, 17, 17);&quot; color=&quot;#eeeeee&quot;&gt;&lt;span style=&quot;font-family: &amp;quot;Courier New&amp;quot;;&quot;&gt;Col: 7&lt;/span&gt;&lt;br style=&quot;font-family: &amp;quot;Courier New&amp;quot;;&quot;&gt;&lt;span style=&quot;font-family: &amp;quot;Courier New&amp;quot;;&quot;&gt;Row: 0&lt;/span&gt;&lt;/font&gt;" style="shape=partialRectangle;html=1;whiteSpace=wrap;connectable=0;overflow=hidden;fillColor=#f5f5f5;top=0;left=0;bottom=0;right=0;pointerEvents=1;fontSize=11;rounded=0;strokeColor=#666666;gradientColor=#b3b3b3;spacingLeft=0;spacingBottom=0;" parent="79" vertex="1">
                    <mxGeometry x="350" width="50" height="50" as="geometry">
                        <mxRectangle width="50" height="50" as="alternateBounds"/>
                    </mxGeometry>
                </mxCell>
            </root>
        </mxGraphModel>
    </diagram>
</mxfile>
